<mxfile host="app.diagrams.net" modified="2022-02-21T09:54:07.235Z" agent="5.0 (Windows)" etag="2j3i8cU4J4aKMwfuuo9v" version="16.6.1" type="github">
  <diagram id="8wKnXPXcamJQd0SGpNeb" name="Page-1">
    <mxGraphModel dx="1397" dy="772" grid="1" gridSize="10" guides="1" tooltips="1" connect="1" arrows="1" fold="1" page="1" pageScale="1" pageWidth="827" pageHeight="1169" math="0" shadow="0">
      <root>
        <mxCell id="dRfrGlsiMVejCe0iSiB0-0" />
        <mxCell id="dRfrGlsiMVejCe0iSiB0-1" parent="dRfrGlsiMVejCe0iSiB0-0" />
      </root>
    </mxGraphModel>
  </diagram>
</mxfile>
